:SAMPLES-PER-SECOND 30
:FULLY-SPECIFIED
:DEGREES
852
root  -6.98679 40.2559 -1.94942 38.1049 83.2162 40.9719
RightUpLeg  -19.4099 -1.43411 -28.8685
RightLeg  22.2334 -0.4755 -0.420204
RightFoot  34.0589 -3.59795 9.13903
RightToes  -2.32832e-010 0 -3.6325e-017
Spine  28.0829 0.444646 8.54193
Spine1  -0.0730643 7.28899 -26.1067
HEad  -22.5397 -10.7907 4.66217
LeftShoulder1  1.45358 -2.66007 -16.8275
LeftArm  10.2377 33.5571 -34.2194
LeftForeArm  97.9205 -79.6517 -100.075
LeftHand  -1.28628 -3.05837 17.8124
RightShoulder  0.726237 0.901943 9.13675
RightArm  -17.0762 -33.7781 41.3441
RightForeArm  157.755 47.4276 168.149
RightHand  -0.489889 -2.12908 -17.2342
LeftUpLeg  -7.52101 13.5614 -1.18516
LeftLeg  26.6814 11.1118 6.33822
LeftFoot  2.57606 1.70186 -14.1745
LeftToes  2.2737e-010 4.38529e-011 2.18788e-011
853
root  -6.87718 39.1797 -1.23443 37.816 78.438 40.546
RightUpLeg  -21.2424 0.0519064 -33.4543
RightLeg  20.9315 2.35975 0.811852
RightFoot  33.5983 -4.15908 10.6431
RightToes  -2.32832e-010 0 -3.6325e-017
Spine  28.6697 2.53548 7.00235
Spine1  -1.62095 9.9994 -32.8009
HEad  -22.2606 -13.04 8.02092
LeftShoulder1  1.04198 -1.20387 -15.3094
LeftArm  10.3433 32.6544 -37.3043
LeftForeArm  104.367 -79.1106 -109.041
LeftHand  -1.20902 -2.83444 17.2137
RightShoulder  0.768191 0.939457 10.0462
RightArm  -12.0924 -33.8182 44.1499
RightForeArm  157.595 51.8758 166.291
RightHand  -0.516531 -1.79898 -16.5627
LeftUpLeg  -6.5875 17.8049 -2.99591
LeftLeg  27.6547 8.23503 4.8459
LeftFoot  -6.08002 0.752715 -15.3949
LeftToes  2.2737e-010 4.38529e-011 2.18788e-011
854
root  -6.91211 38.1508 -0.255683 56.8608 77.8461 59.0532
RightUpLeg  -19.9721 0.573102 -37.3147
RightLeg  21.8436 1.13757 0.278692
RightFoot  24.5749 -5.47109 17.6183
RightToes  -2.32832e-010 0 -3.6325e-017
Spine  28.1913 3.24716 3.80207
Spine1  -0.645399 10.1931 -33.2773
HEad  -23.7033 -14.9027 10.9675
LeftShoulder1  0.812028 -0.23004 -14.8839
LeftArm  11.2942 27.9455 -40.8703
LeftForeArm  111.753 -78.1968 -118.555
LeftHand  -1.16249 -2.60084 17.0306
RightShoulder  0.799316 0.748546 11.7395
RightArm  -9.10196 -35.1468 48.9278
RightForeArm  152.496 62.0892 159.195
RightHand  -0.692898 -0.745258 -17.205
LeftUpLeg  -8.76198 18.5853 -4.04647
LeftLeg  31.3801 4.31924 3.23135
LeftFoot  -11.353 0.0694091 -15.3786
LeftToes  2.2737e-010 4.38529e-011 2.18788e-011
855
root  -7.02696 37.2249 0.952401 95.7126 79.8178 96.3774
RightUpLeg  -17.1096 -1.07749 -37.1244
RightLeg  25.7424 -2.3145 -1.44198
RightFoot  10.3449 -5.1255 26.5632
RightToes  -2.32832e-010 0 -3.6325e-017
Spine  27.3402 1.91338 1.44685
Spine1  0.426857 7.67479 -29.288
HEad  -25.5799 -15.8031 12.9186
LeftShoulder1  0.936136 -0.748151 -15.202
LeftArm  12.4273 22.6094 -44.3644
LeftForeArm  118.069 -77.2361 -125.66
LeftHand  -1.09447 -2.24821 16.7727
RightShoulder  0.862094 0.525112 14.6328
RightArm  -8.13551 -36.7883 52.5753
RightForeArm  131.819 75.202 135.439
RightHand  -1.03 0.815005 -19.2511
LeftUpLeg  -14.693 14.7612 -2.54324
LeftLeg  37.7509 1.69537 1.80762
LeftFoot  -14.5767 -0.327266 -14.595
LeftToes  2.2737e-010 4.38529e-011 2.18788e-011
856
root  -7.20274 36.5076 2.20729 148.68 78.9196 147.781
RightUpLeg  -15.6859 -5.73419 -31.6664
RightLeg  31.5152 -4.05031 -2.89788
RightFoot  -0.0275296 -3.06258 29.7864
RightToes  -2.32832e-010 0 -3.6325e-017
Spine  27.6251 -0.0675701 -0.157582
Spine1  -0.150619 3.39086 -20.0597
HEad  -26.995 -14.7208 12.6538
LeftShoulder1  1.15327 -1.93729 -14.2852
LeftArm  12.135 20.2646 -50.2661
LeftForeArm  123.336 -76.5393 -130.033
LeftHand  -1.04108 -1.81891 16.8885
RightShoulder  0.905795 0.294842 17.318
RightArm  -6.0623 -38.361 51.8314
RightForeArm  77.3868 79.8865 78.0375
RightHand  -1.3098 1.8147 -21.1244
LeftUpLeg  -21.7682 9.68392 2.92632
LeftLeg  43.7617 -0.45448 -0.0279322
LeftFoot  -16.4818 -0.537106 -14.0724
LeftToes  2.2737e-010 4.38529e-011 2.18788e-011
857
root  -7.38926 36.1624 3.32723 -177.774 73.511 -179.898
RightUpLeg  -15.9104 -11.3531 -24.1101
RightLeg  35.4339 -4.78408 -3.89223
RightFoot  -4.01237 -1.79425 27.1212
RightToes  -2.32832e-010 0 -3.6325e-017
Spine  28.5138 -1.01661 -3.48717
Spine1  -1.07201 -1.30202 -4.19551
HEad  -28.2322 -11.1618 9.66611
LeftShoulder1  1.19512 -2.29828 -13.6301
LeftArm  10.7848 20.2229 -56.1545
LeftForeArm  130.67 -74.8111 -137.354
LeftHand  -1.04783 -1.68817 17.2994
RightShoulder  0.880121 0.14012 17.6662
RightArm  -2.40176 -40.381 47.6623
RightForeArm  64.4499 78.83 64.2635
RightHand  -1.32669 1.77268 -21.479
LeftUpLeg  -27.5988 5.3781 10.3
LeftLeg  46.2627 -2.19686 -1.99819
LeftFoot  -16.893 -0.595391 -14.3003
LeftToes  2.2737e-010 4.38529e-011 2.18788e-011
858
root  -7.46091 36.1562 4.21645 -166.463 68.3876 -170.165
RightUpLeg  -16.2384 -15.1005 -18.4309
RightLeg  35.405 -5.53695 -4.46447
RightFoot  -6.24141 -1.15264 24.6641
RightToes  -2.32832e-010 0 -3.6325e-017
Spine  28.3851 -1.29803 -7.80364
Spine1  -0.759403 -5.29182 11.0307
HEad  -29.3002 -6.77317 6.66598
LeftShoulder1  1.07221 -1.60071 -14.0765
LeftArm  10.427 20.1588 -56.9951
LeftForeArm  138.963 -70.6572 -147.99
LeftHand  -1.01555 -1.74515 16.6359
RightShoulder  0.879949 0.319803 16.4191
RightArm  -1.1559 -43.6425 45.4999
RightForeArm  92.4634 79.7389 93.7629
RightHand  -1.12078 1.09514 -20.0221
LeftUpLeg  -31.4831 2.37909 15.5726
LeftLeg  45.1915 -3.14704 -2.97047
LeftFoot  -16.1253 -0.541047 -15.1927
LeftToes  2.2737e-010 4.38529e-011 2.18788e-011
859
root  -7.42288 36.2998 4.83701 -165.16 67.9731 -170.405
RightUpLeg  -16.719 -15.5975 -16.8502
RightLeg  33.4622 -5.22269 -3.96304
RightFoot  -9.19451 -0.532751 24.7247
RightToes  -2.32832e-010 0 -3.6325e-017
Spine  27.1235 -2.0906 -8.79736
Spine1  0.18477 -6.73914 13.0353
HEad  -29.1862 -4.49239 7.26603
LeftShoulder1  0.857436 -0.716777 -13.2793
LeftArm  11.0755 19.3967 -52.4082
LeftForeArm  143.297 -66.4135 -154.655
LeftHand  -0.888092 -1.58335 14.9233
RightShoulder  0.953064 0.627512 16.4566
RightArm  -3.90311 -48.5669 49.7664
RightForeArm  122.744 77.5922 125.4
RightHand  -0.885305 0.380696 -17.8354
LeftUpLeg  -32.4162 1.61044 16.6603
LeftLeg  42.8288 -2.72563 -2.31437
LeftFoot  -14.9763 -0.43541 -16.4539
LeftToes  2.2737e-010 4.38529e-011 2.18788e-011
860
root  -7.43042 36.4948 5.28047 -169.562 73.6868 -174.987
RightUpLeg  -18.567 -13.296 -18.1961
RightLeg  32.5506 -2.79422 -2.1558
RightFoot  -10.3339 -0.284605 24.2441
RightToes  -2.32832e-010 0 -3.6325e-017
Spine  26.5755 -2.79905 -5.38227
Spine1  -0.102464 -4.22762 -0.11478
HEad  -27.7043 -4.99879 10.6885
LeftShoulder1  0.660856 -0.211631 -10.502
LeftArm  10.418 19.2352 -46.9053
LeftForeArm  143.426 -66.2453 -154.722
LeftHand  -0.820473 -1.45247 14.0681
RightShoulder  1.07122 0.804986 18.4072
RightArm  -6.24593 -52.728 57.2202
RightForeArm  135.22 75.4602 136.5
RightHand  -0.802048 0.327698 -16.3331
LeftUpLeg  -29.3928 4.29147 15.1088
LeftLeg  40.4644 -1.10581 -0.626287
LeftFoot  -13.9111 -0.322215 -17.9301
LeftToes  2.2737e-010 4.38529e-011 2.18788e-011
861
root  -7.50713 36.6575 5.66983 -172.931 82.8039 -176.973
RightUpLeg  -21.7276 -8.96737 -18.936
RightLeg  33.3063 0.191847 -0.105441
RightFoot  -8.79637 -0.540803 21.5445
RightToes  -2.32832e-010 0 -3.6325e-017
Spine  28.1575 -1.92794 -2.07053
Spine1  -2.58828 -0.0899932 -14.7423
HEad  -26.281 -5.64828 12.4667
LeftShoulder1  0.524715 0.300154 -9.00138
LeftArm  7.24937 21.4329 -43.5567
LeftForeArm  140.718 -69.2501 -150.546
LeftHand  -0.878691 -1.53197 14.8727
RightShoulder  1.17971 1.08264 19.3634
RightArm  -1.72098 -53.6537 59.4642
RightForeArm  144.512 73.8564 142.475
RightHand  -0.795303 0.796027 -14.9927
LeftUpLeg  -23.6555 10.0602 14.5023
LeftLeg  38.3913 0.511828 0.82644
LeftFoot  -13.4897 -0.287828 -19.4119
LeftToes  2.2737e-010 4.38529e-011 2.18788e-011
862
root  -7.50188 36.6998 6.07529 175.083 89.9329 171.786
RightUpLeg  -24.712 -4.4577 -17.2632
RightLeg  34.371 1.29414 0.701906
RightFoot  -7.50837 -0.698801 19.0849
RightToes  -2.32832e-010 0 -3.6325e-017
Spine  28.7543 0.302495 -2.80992
Spine1  -3.95678 2.37212 -17.51
HEad  -26.125 -4.19963 10.8394
LeftShoulder1  0.436108 1.13242 -11.2307
LeftArm  2.35517 24.6499 -42.1333
LeftForeArm  137.195 -71.3224 -146.688
LeftHand  -0.954896 -1.46052 16.301
RightShoulder  1.1596 1.33622 17.4189
RightArm  7.23998 -51.0945 55.3607
RightForeArm  152.593 71.6565 148.397
RightHand  -0.724289 1.01882 -13.2195
LeftUpLeg  -19.5679 15.2949 16.4154
LeftLeg  37.2302 1.17421 1.35137
LeftFoot  -13.757 -0.356237 -20.5816
LeftToes  2.2737e-010 4.38529e-011 2.18788e-011
863
root  -7.38558 36.6605 6.49494 -75.6958 86.3994 -80.4077
RightUpLeg  -26.3973 -3.27865 -13.2837
RightLeg  34.6382 0.477533 0.107252
RightFoot  -7.82699 -0.630361 18.6553
RightToes  -2.32832e-010 0 -3.6325e-017
Spine  26.3052 1.33714 -4.40742
Spine1  -2.5023 2.24509 -10.4338
HEad  -26.3883 -1.58181 8.43955
LeftShoulder1  0.421614 1.48529 -13.8302
LeftArm  -2.15063 27.0916 -43.2416
LeftForeArm  135.936 -71.8795 -145.411
LeftHand  -1.0121 -1.43862 17.3107
RightShoulder  1.0584 1.26631 15.477
RightArm  11.0353 -47.4405 50.7331
RightForeArm  150.674 71.6929 147.929
RightHand  -0.704904 1.02168 -12.8591
LeftUpLeg  -20.821 16.5981 20.086
LeftLeg  37.5463 0.640673 0.911352
LeftFoot  -13.7477 -0.371648 -21.3787
LeftToes  2.2737e-010 4.38529e-011 2.18788e-011
864
root  -7.26692 36.474 6.85265 -113.447 79.5353 -120.156
RightUpLeg  -26.6729 -6.52542 -6.08485
RightLeg  34.6688 -1.11177 -1.08167
RightFoot  -8.42022 -0.544985 18.9329
RightToes  -2.32832e-010 0 -3.6325e-017
Spine  24.2644 0.243417 -2.84609
Spine1  -1.88965 -0.294644 0.467547
HEad  -25.4927 0.785424 6.37387
LeftShoulder1  0.53672 0.846386 -13.2674
LeftArm  -5.16803 29.9345 -47.8505
LeftForeArm  136.467 -71.9762 -145.317
LeftHand  -1.02538 -1.49119 17.4018
RightShoulder  0.939935 0.667015 15.9144
RightArm  8.85154 -46.6326 47.0609
RightForeArm  138.016 75.0472 138.06
RightHand  -0.809859 1.20467 -14.3541
LeftUpLeg  -26.602 14.8542 26.5944
LeftLeg  39.9373 -1.2944 -0.79841
LeftFoot  -13.4557 -0.329485 -21.9382
LeftToes  2.2737e-010 4.38529e-011 2.18788e-011
865
root  -7.1677 36.0894 7.17988 -120.69 68.3186 -127.749
RightUpLeg  -25.6107 -12.0031 3.35427
RightLeg  34.9376 -2.77353 -2.34034
RightFoot  -9.17468 -0.426307 19.0344
RightToes  -2.32832e-010 0 -3.6325e-017
Spine  25.3455 -1.47162 -0.21506
Spine1  -4.32549 -3.78692 14.6334
HEad  -24.004 3.61751 2.56609
LeftShoulder1  0.707701 -0.234431 -11.7346
LeftArm  -7.97187 33.7323 -54.2194
LeftForeArm  137.368 -70.6531 -147.84
LeftHand  -0.936502 -1.2408 16.4912
RightShoulder  0.742939 -0.331452 16.8521
RightArm  6.41113 -48.1396 42.1066
RightForeArm  122.516 77.982 123.211
RightHand  -0.883962 1.27225 -15.4974
LeftUpLeg  -33.0884 12.4421 35.6862
LeftLeg  43.096 -3.93402 -3.53957
LeftFoot  -13.4838 -0.334613 -21.941
LeftToes  2.2737e-010 4.38529e-011 2.18788e-011
866
root  -7.03222 35.642 7.56017 -125.153 58.5052 -131.122
RightUpLeg  -24.0439 -16.4139 10.7667
RightLeg  35.6348 -4.54373 -3.76489
RightFoot  -11.1348 -0.108266 20.1044
RightToes  -2.32832e-010 0 -3.6325e-017
Spine  28.179 -2.38328 -1.80041
Spine1  -6.76824 -7.14331 31.8645
HEad  -23.9442 7.7776 -3.12516
LeftShoulder1  0.851143 -0.923162 -12.1082
LeftArm  -11.1025 35.3003 -58.8928
LeftForeArm  138.354 -66.5026 -153.791
LeftHand  -0.800915 -0.504567 15.8767
RightShoulder  0.51447 -1.25687 16.356
RightArm  4.83844 -48.7721 37.289
RightForeArm  115.155 79.0045 114.296
RightHand  -0.892595 1.1085 -16.0211
LeftUpLeg  -38.1068 9.86539 43.0959
LeftLeg  45.192 -5.76415 -5.78184
LeftFoot  -13.8471 -0.382505 -21.0726
LeftToes  2.2737e-010 4.38529e-011 2.18788e-011
